<?xml version="1.0" encoding="UTF-8"?>
<svg id="_レイヤー_1" data-name="レイヤー 1" xmlns="http://www.w3.org/2000/svg" viewBox="0 0 539.23 660.7">
  <defs>
    <style>
      .cls-1 {
        stroke-width: .6px;
      }

      .cls-1, .cls-2 {
        fill: none;
        stroke: #231815;
        stroke-miterlimit: 10;
      }

      .cls-3 {
        fill: #231815;
      }

      .cls-2 {
        stroke-linecap: round;
        stroke-width: 29.94px;
      }
    </style>
  </defs>
  <path class="cls-2" d="m163.64,501.23C75.91,461.02,14.97,372.43,14.97,269.62,14.97,128.98,128.98,14.97,269.62,14.97s254.64,114.01,254.64,254.64c0,104.98-63.53,195.12-154.24,234.08"/>
  <g>
    <path class="cls-3" d="m389.44,221.56c-5.39-4.52-13.42-3.82-17.94,1.57l-101.89,121.43-101.89-121.43c-4.52-5.39-12.55-6.09-17.94-1.57s-6.09,12.55-1.57,17.94l106.42,126.83v294.07h29.94v-294.07l106.42-126.83c4.52-5.39,3.82-13.42-1.57-17.94Z"/>
    <path class="cls-1" d="m389.44,221.56c-5.39-4.52-13.42-3.82-17.94,1.57l-101.89,121.43-101.89-121.43c-4.52-5.39-12.55-6.09-17.94-1.57s-6.09,12.55-1.57,17.94l106.42,126.83v294.07h29.94v-294.07l106.42-126.83c4.52-5.39,3.82-13.42-1.57-17.94Z"/>
  </g>
</svg>