<?xml version="1.0" encoding="UTF-8"?>
<svg id="_レイヤー_1" data-name="レイヤー 1" xmlns="http://www.w3.org/2000/svg" viewBox="0 0 1417.32 1417.32">
  <defs>
    <style>
      .cls-1 {
        stroke-width: .6px;
      }

      .cls-1, .cls-2 {
        fill: none;
        stroke: #231815;
        stroke-miterlimit: 10;
      }

      .cls-3 {
        fill: #efefef;
      }

      .cls-4 {
        fill: #231815;
      }

      .cls-2 {
        stroke-linecap: round;
        stroke-width: 29.94px;
      }
    </style>
  </defs>
  <rect class="cls-3" width="1417.32" height="1417.32"/>
  <path class="cls-2" d="m602.68,950.55c-87.73-40.21-148.67-128.79-148.67-231.61,0-140.64,114.01-254.64,254.64-254.64s254.64,114.01,254.64,254.64c0,104.98-63.53,195.12-154.24,234.08"/>
  <g>
    <path class="cls-4" d="m828.49,670.89c-5.39-4.52-13.42-3.82-17.94,1.57l-101.89,121.43-101.89-121.43c-4.52-5.39-12.55-6.09-17.94-1.57s-6.09,12.55-1.57,17.94l106.42,126.83v294.07h29.94v-294.07l106.42-126.83c4.52-5.39,3.82-13.42-1.57-17.94Z"/>
    <path class="cls-1" d="m828.49,670.89c-5.39-4.52-13.42-3.82-17.94,1.57l-101.89,121.43-101.89-121.43c-4.52-5.39-12.55-6.09-17.94-1.57s-6.09,12.55-1.57,17.94l106.42,126.83v294.07h29.94v-294.07l106.42-126.83c4.52-5.39,3.82-13.42-1.57-17.94Z"/>
  </g>
</svg>